<svg width="32" height="32" viewBox="0 0 32 32" fill="none" xmlns="http://www.w3.org/2000/svg">
<rect x="0.5" y="0.5" width="31" height="31" rx="9.5" stroke="white"/>
<path d="M18.7748 10.0044H17.3358C16.9746 9.98222 16.6132 10.0441 16.2761 10.1859C15.9389 10.3277 15.6338 10.546 15.3815 10.8262C15.1291 11.1064 14.9353 11.4419 14.8132 11.81C14.691 12.1781 14.6434 12.5702 14.6736 12.9599V14.321H13.2259C13.166 14.321 13.1086 14.3468 13.0662 14.3926C13.0238 14.4384 13 14.5005 13 14.5653V16.5338C13.0002 16.5985 13.024 16.6605 13.0664 16.7063C13.1087 16.752 13.1661 16.7778 13.2259 16.778H14.6736V21.7558C14.6738 21.8206 14.6977 21.8827 14.7402 21.9285C14.7827 21.9743 14.8402 22 14.9002 22H16.7875C16.8475 22 16.905 21.9743 16.9475 21.9285C16.99 21.8827 17.014 21.8206 17.0142 21.7558V16.778H18.7057C18.7656 16.778 18.8231 16.7523 18.8655 16.7065C18.9079 16.6607 18.9316 16.5986 18.9316 16.5338V14.5598C18.9314 14.4951 18.9076 14.4331 18.8655 14.3872C18.8444 14.3644 18.8194 14.3463 18.7918 14.3341C18.7643 14.3218 18.7348 14.3155 18.705 14.3156H17.0127V13.1614C17.0127 12.6068 17.135 12.3253 17.8042 12.3253H18.7741C18.834 12.3253 18.8915 12.2995 18.9338 12.2537C18.9762 12.2079 19 12.1458 19 12.0811V10.2494C19 10.1847 18.9763 10.1226 18.9341 10.0767C18.8919 10.0308 18.8347 10.0048 18.7748 10.0044Z" fill="white"/>
</svg>
