<svg width="32" height="32" viewBox="0 0 32 32" fill="none" xmlns="http://www.w3.org/2000/svg">
<rect x="0.5" y="0.5" width="31" height="31" rx="9.5" stroke="white"/>
<path d="M22.9433 13.1322C22.9355 12.5443 22.8255 11.9623 22.6181 11.4122C22.4383 10.9482 22.1637 10.5268 21.8118 10.1749C21.46 9.82307 21.0386 9.54846 20.5746 9.36867C20.0315 9.16482 19.4578 9.05459 18.8779 9.04269C18.1313 9.00931 17.8945 9 15.9992 9C14.1039 9 13.8609 9 13.1197 9.04269C12.5401 9.05468 11.9667 9.1649 11.4239 9.36867C10.9598 9.54833 10.5383 9.8229 10.1864 10.1748C9.83452 10.5267 9.55996 10.9482 9.38029 11.4122C9.17604 11.9549 9.06605 12.5284 9.05509 13.1081C9.02172 13.8555 9.01163 14.0923 9.01163 15.9876C9.01163 17.8829 9.01163 18.1251 9.05509 18.8671C9.06673 19.4476 9.17617 20.0204 9.38029 20.5645C9.56026 21.0284 9.83503 21.4497 10.187 21.8015C10.5391 22.1532 10.9606 22.4277 11.4246 22.6073C11.966 22.8193 12.5395 22.9374 13.1205 22.9565C13.8679 22.9899 14.1047 23 16 23C17.8953 23 18.1383 23 18.8795 22.9565C19.4594 22.9451 20.0331 22.8351 20.5761 22.6313C21.04 22.4513 21.4613 22.1767 21.8131 21.8248C22.165 21.473 22.4397 21.0517 22.6197 20.5878C22.8238 20.0445 22.9332 19.4717 22.9449 18.8903C22.9783 18.1437 22.9883 17.907 22.9883 16.0109C22.9868 14.1155 22.9868 13.8749 22.9433 13.1322ZM15.9946 19.5718C14.0123 19.5718 12.4065 17.966 12.4065 15.9837C12.4065 14.0014 14.0123 12.3956 15.9946 12.3956C16.9462 12.3956 17.8588 12.7736 18.5317 13.4465C19.2046 14.1194 19.5826 15.0321 19.5826 15.9837C19.5826 16.9353 19.2046 17.848 18.5317 18.5209C17.8588 19.1938 16.9462 19.5718 15.9946 19.5718ZM19.7255 13.0996C19.2621 13.0996 18.8888 12.7255 18.8888 12.2629C18.8888 12.1531 18.9104 12.0443 18.9524 11.9429C18.9945 11.8414 19.0561 11.7492 19.1337 11.6715C19.2114 11.5939 19.3036 11.5323 19.405 11.4903C19.5065 11.4482 19.6152 11.4266 19.7251 11.4266C19.8349 11.4266 19.9436 11.4482 20.0451 11.4903C20.1466 11.5323 20.2388 11.5939 20.3164 11.6715C20.3941 11.7492 20.4557 11.8414 20.4977 11.9429C20.5397 12.0443 20.5614 12.1531 20.5614 12.2629C20.5614 12.7255 20.1873 13.0996 19.7255 13.0996Z" fill="white"/>
<path d="M15.9945 18.3143C17.2817 18.3143 18.3253 17.2708 18.3253 15.9836C18.3253 14.6963 17.2817 13.6528 15.9945 13.6528C14.7073 13.6528 13.6638 14.6963 13.6638 15.9836C13.6638 17.2708 14.7073 18.3143 15.9945 18.3143Z" fill="white"/>
</svg>
