<svg width="32" height="32" viewBox="0 0 32 32" fill="none" xmlns="http://www.w3.org/2000/svg">
<rect x="0.5" y="0.5" width="31" height="31" stroke="#1B3A5C"/>
<path fill-rule="evenodd" clip-rule="evenodd" d="M23.1732 16.3152C23.1732 16.1881 23.1191 16.0662 23.0229 15.9762C22.9266 15.8863 22.7961 15.8358 22.6599 15.8358H10.5533L13.784 12.8194C13.8317 12.7749 13.8696 12.7219 13.8954 12.6637C13.9212 12.6055 13.9345 12.543 13.9345 12.48C13.9345 12.417 13.9212 12.3546 13.8954 12.2963C13.8696 12.2381 13.8317 12.1852 13.784 12.1406C13.7363 12.096 13.6796 12.0607 13.6173 12.0365C13.5549 12.0124 13.4881 12 13.4206 12C13.3531 12 13.2863 12.0124 13.2239 12.0365C13.1616 12.0607 13.1049 12.096 13.0572 12.1406L8.9508 15.9758C8.903 16.0203 8.86508 16.0733 8.8392 16.1315C8.81332 16.1897 8.8 16.2522 8.8 16.3152C8.8 16.3783 8.81332 16.4407 8.8392 16.499C8.86508 16.5572 8.903 16.6101 8.9508 16.6547L13.0572 20.4899C13.1049 20.5344 13.1616 20.5698 13.2239 20.5939C13.2863 20.6181 13.3531 20.6305 13.4206 20.6305C13.4881 20.6305 13.5549 20.6181 13.6173 20.5939C13.6796 20.5698 13.7363 20.5344 13.784 20.4899C13.8317 20.4453 13.8696 20.3924 13.8954 20.3342C13.9212 20.2759 13.9345 20.2135 13.9345 20.1505C13.9345 20.0874 13.9212 20.025 13.8954 19.9668C13.8696 19.9085 13.8317 19.8556 13.784 19.811L10.5533 16.7946H22.6599C22.7961 16.7946 22.9266 16.7441 23.0229 16.6542C23.1191 16.5643 23.1732 16.4424 23.1732 16.3152Z" fill="#1B3A5C"/>
</svg>
