<svg width="230" height="75" viewBox="0 0 230 75" fill="none" xmlns="http://www.w3.org/2000/svg">
<path d="M11.568 41.6883C13.949 41.6883 15.7844 41.3014 17.0543 40.5077C18.3242 39.7239 19.2369 38.7318 19.7826 37.5115C20.3283 36.3012 20.6358 34.942 20.6953 33.434C20.7549 31.926 20.7846 30.4477 20.7846 28.9993V0.992106H23.3641V29.8822C23.3641 30.7057 23.3542 31.6283 23.3343 32.6403C23.3145 33.6622 23.1954 34.684 22.9772 35.7257C22.7589 36.7675 22.4315 37.7695 21.9851 38.7517C21.5287 39.7339 20.8739 40.597 20.0207 41.3609C19.1576 42.1248 18.0762 42.7399 16.7666 43.2062C15.457 43.6725 13.82 43.9106 11.8656 43.9106C9.04801 43.9106 6.83561 43.4642 5.2284 42.5614C3.62119 41.6585 2.44058 40.5077 1.67666 39.0989C0.912738 37.6901 0.446448 36.1424 0.267869 34.4658C0.08929 32.7792 0 31.1521 0 29.5945H2.57948C2.46042 31.1621 2.48027 32.6701 2.639 34.1185C2.79774 35.567 3.18466 36.8468 3.80969 37.9679C4.43472 39.089 5.3673 39.9819 6.59751 40.6664C7.83764 41.351 9.48454 41.6883 11.568 41.6883Z" fill="#D9D9D6"/>
<path d="M65.231 21.9652C65.231 25.0209 64.7845 27.8881 63.8817 30.5668C62.9789 33.2455 61.6792 35.5769 59.9728 37.5512C58.2664 39.5255 56.183 41.0831 53.7226 42.224C51.2621 43.355 48.4545 43.9305 45.3293 43.9305C42.1943 43.9305 39.3866 43.365 36.9064 42.224C34.4162 41.0831 32.3228 39.5354 30.6263 37.5512C28.9199 35.5769 27.6202 33.2455 26.7174 30.5668C25.8146 27.8881 25.3682 25.0209 25.3682 21.9652C25.3682 18.9095 25.8146 16.0424 26.7174 13.3637C27.6202 10.685 28.9199 8.35353 30.6263 6.37924C32.3327 4.40495 34.4261 2.84735 36.9064 1.70642C39.3866 0.565502 42.2042 0 45.3293 0C48.4644 0 51.2621 0.565502 53.7226 1.70642C56.1929 2.83742 58.2763 4.39503 59.9728 6.37924C61.6792 8.35353 62.9789 10.685 63.8817 13.3637C64.7845 16.0424 65.231 18.9095 65.231 21.9652ZM27.9476 21.9652C27.9476 24.6638 28.3346 27.2135 29.1183 29.5945C29.9021 31.9855 31.043 34.0689 32.5212 35.8448C34.0094 37.6306 35.825 39.0493 37.9877 40.1009C40.1406 41.1625 42.5812 41.6883 45.3293 41.6883C48.0675 41.6883 50.5081 41.1625 52.6412 40.1009C54.7742 39.0493 56.5798 37.6306 58.068 35.8448C59.5561 34.059 60.6871 31.9756 61.4709 29.5945C62.2547 27.2036 62.6515 24.6638 62.6515 21.9652C62.6515 19.2667 62.2547 16.717 61.4709 14.326C60.6871 11.945 59.5561 9.85161 58.068 8.07574C56.5798 6.28995 54.7742 4.87124 52.6412 3.81961C50.5081 2.75805 48.0675 2.23224 45.3293 2.23224C42.5911 2.23224 40.1406 2.75805 37.9877 3.81961C35.8349 4.87124 34.0094 6.28995 32.5212 8.07574C31.0331 9.85161 29.9021 11.945 29.1183 14.326C28.3346 16.717 27.9476 19.2568 27.9476 21.9652Z" fill="#D9D9D6"/>
<path d="M69.8145 1.00203V26.1321C69.8145 26.9555 69.8542 27.9179 69.9336 29.0092C70.0129 30.1104 70.2014 31.2315 70.5189 32.3823C70.8265 33.5332 71.2729 34.6741 71.8384 35.7853C72.4039 36.8964 73.1778 37.8985 74.16 38.7814C75.1421 39.6644 76.3426 40.3688 77.7712 40.8946C79.1999 41.4204 80.936 41.6883 82.9698 41.6883C85.5493 41.6883 87.7121 41.3311 89.4582 40.6069C91.2043 39.8827 92.6131 38.841 93.6846 37.4917C94.766 36.1424 95.5398 34.5055 96.0061 32.5907C96.4724 30.6759 96.7105 28.5231 96.7105 26.1321V1.00203H99.29V26.1321C99.29 28.6421 99.0221 30.9636 98.4963 33.1165C97.9705 35.2694 97.0776 37.1544 95.8275 38.7616C94.5775 40.3688 92.9008 41.6288 90.8075 42.5514C88.7141 43.4741 86.095 43.9305 82.9698 43.9305C80.4995 43.9305 78.3863 43.613 76.6303 42.988C74.8643 42.3629 73.4059 41.5494 72.2551 40.5474C71.0943 39.5454 70.1915 38.4044 69.5268 37.1147C68.8621 35.825 68.3462 34.5253 67.999 33.2058C67.6418 31.8962 67.4335 30.6263 67.3541 29.3862C67.2747 28.156 67.235 27.0647 67.235 26.1321V1.00203H69.8145Z" fill="#D9D9D6"/>
<path d="M100.818 1.00203H118.319C120.154 1.00203 121.88 1.19053 123.487 1.55761C125.095 1.93461 126.503 2.5398 127.714 3.38309C128.934 4.22638 129.877 5.32761 130.561 6.69672C131.246 8.06582 131.583 9.77225 131.583 11.8061C131.583 14.6236 130.789 17.0047 129.202 18.9393C127.615 20.8838 125.412 22.0843 122.595 22.5506V22.6696C124.509 22.9077 126.027 23.4137 127.148 24.1975C128.269 24.9812 129.103 25.9436 129.648 27.0746C130.194 28.2056 130.551 29.4656 130.7 30.8347C130.859 32.2038 130.938 33.5729 130.938 34.942V37.3528C130.938 38.1366 130.978 38.8707 131.057 39.5553C131.137 40.2398 131.266 40.8748 131.444 41.4601C131.613 42.0455 131.861 42.5415 132.178 42.9284H129.301C128.756 41.9463 128.448 40.8053 128.388 39.4957C128.329 38.1862 128.299 36.827 128.299 35.4182C128.299 34.0094 128.24 32.6105 128.121 31.2216C128.002 29.8326 127.634 28.5826 127.009 27.4913C126.384 26.4 125.392 25.517 124.043 24.8523C122.694 24.1876 120.779 23.8502 118.319 23.8502H103.407V42.9284H100.818V1.00203ZM118.319 21.6081C119.846 21.6081 121.265 21.4196 122.575 21.0525C123.884 20.6854 125.015 20.11 125.948 19.3163C126.89 18.5325 127.625 17.5305 128.18 16.3201C128.726 15.1098 129.004 13.6613 129.004 11.9747C129.004 10.4072 128.706 9.06785 128.121 7.94677C127.535 6.83561 126.752 5.92288 125.769 5.21848C124.787 4.51409 123.656 4.00811 122.366 3.69064C121.077 3.38308 119.727 3.22435 118.319 3.22435H103.407V21.6081H118.319Z" fill="#D9D9D6"/>
<path d="M133.111 1.00203H136.345L162.824 39.466H162.944V1.00203H165.523V42.9284H162.467L135.809 4.16684H135.7V42.9284H133.111V1.00203Z" fill="#D9D9D6"/>
<path d="M167.051 1.00203H195.237V3.23427H169.63V20.0207H193.709V22.2529H169.63V40.6962H195.534V42.9284H167.051V1.00203Z" fill="#D9D9D6"/>
<path d="M227.123 1.00203H230L213.144 25.3682V42.9284H210.565V25.3682L193.828 1.00203H196.764L211.914 23.1954L227.123 1.00203Z" fill="#D9D9D6"/>
<path d="M40.4779 61.1633C40.6664 60.6971 40.9839 60.2903 41.4204 59.9431C41.857 59.5958 42.3034 59.3776 42.7399 59.2883C43.0872 59.2287 43.4146 59.2387 43.732 59.3081C44.0396 59.3875 44.2182 59.5661 44.2479 59.8538C44.2777 60.1415 44.1586 60.4094 43.8908 60.6772C43.6229 60.9451 43.2955 61.1832 42.8987 61.4015C42.5118 61.6197 42.1248 61.8082 41.7478 61.967C41.3708 62.1257 41.1228 62.215 40.9938 62.2447C41.1526 62.6813 41.48 63.0087 41.976 63.2369C42.482 63.4551 43.0574 63.5146 43.7122 63.4253C44.9027 63.2666 46.0833 62.9293 47.2441 62.4134C48.4049 61.8975 49.4069 61.3519 50.2502 60.7864C50.4387 60.6276 50.5974 60.6276 50.7165 60.7864C50.8454 60.9451 50.8058 61.1038 50.6272 61.2526C50.1907 61.5701 49.6648 61.8876 49.0497 62.215C48.4346 62.5424 47.7898 62.84 47.125 63.1079C46.4504 63.3757 45.7659 63.594 45.0515 63.7627C44.3471 63.9313 43.6626 64.0206 43.0078 64.0206C42.5614 64.0206 42.1645 63.9512 41.7875 63.8123C41.4105 63.6734 41.093 63.4749 40.8252 63.2269C40.5573 62.9789 40.3787 62.6813 40.3093 62.334C40.2299 61.9967 40.2894 61.5999 40.4779 61.1633ZM43.5832 59.8439C43.0177 59.7149 42.4721 59.8835 41.9363 60.3399C41.4006 60.7963 41.0534 61.2725 40.9045 61.7785C41.0335 61.7189 41.2319 61.6098 41.5196 61.4709C41.7974 61.332 42.0951 61.1733 42.4125 61.0046C42.73 60.836 42.9979 60.6474 43.236 60.4391C43.4642 60.2308 43.5832 60.0324 43.5832 59.8439Z" fill="#D9D9D6"/>
<path d="M48.6132 64.1794C48.2362 63.9611 48.0973 63.6238 48.1866 63.1674C48.2759 62.721 48.514 62.2745 48.891 61.8479C49.268 61.4213 49.7343 61.0443 50.2998 60.7169C50.8653 60.3895 51.4308 60.2208 51.9963 60.2208C52.3733 60.2208 52.7106 60.3002 53.0082 60.459C53.3059 60.6177 53.5043 60.7864 53.5936 60.9749C53.6531 61.0641 53.6333 61.1534 53.5241 61.2328C53.415 61.3122 53.3158 61.3221 53.2166 61.2626C53.0578 61.1633 52.909 61.0641 52.7701 60.955C52.6312 60.8459 52.3733 60.7864 51.9963 60.7864C51.6193 60.7864 51.2125 60.9153 50.776 61.1633C50.3395 61.4114 49.9526 61.6991 49.6252 62.0364C49.2978 62.3638 49.0597 62.6813 48.9208 62.9789C48.7819 63.2765 48.8017 63.4849 48.9902 63.6138C49.2779 63.6833 49.645 63.6039 50.1212 63.4055C50.5875 63.1972 51.0836 62.9491 51.5994 62.6515C52.1153 62.3539 52.6213 62.0364 53.1075 61.6892C53.5936 61.3419 54.0103 61.0443 54.3575 60.7963C54.6651 60.5482 54.8833 60.5185 54.9925 60.707C55.1016 60.8955 55.0817 61.0542 54.923 61.1733C54.5162 61.461 54.2385 61.8082 54.0996 62.2348C53.9607 62.6614 54.0003 62.9194 54.2186 63.0087C54.4369 63.098 54.794 63.0483 55.3 62.84C55.7961 62.6416 56.3219 62.3936 56.8477 62.1158C57.3834 61.838 57.8795 61.5503 58.3557 61.2725C58.822 60.9848 59.1196 60.7963 59.2486 60.707C59.4371 60.6177 59.5859 60.6574 59.695 60.8459C59.8042 61.0344 59.7843 61.1733 59.6256 61.2725C59.4073 61.3915 59.0601 61.6098 58.5938 61.9074C58.1176 62.2051 57.6116 62.4928 57.066 62.7805C56.5203 63.0583 55.9647 63.2964 55.4191 63.4849C54.8734 63.6734 54.427 63.723 54.0797 63.6238C53.7325 63.5345 53.5241 63.3261 53.4448 63.0186C53.3654 62.7011 53.4051 62.4035 53.5638 62.1257C53.2166 62.3737 52.8098 62.6515 52.3435 62.9491C51.8772 63.2468 51.3911 63.5047 50.8851 63.723C50.3792 63.9412 49.9228 64.1099 49.516 64.219C49.0993 64.3083 48.8017 64.2984 48.6132 64.1794Z" fill="#D9D9D6"/>
<path d="M54.5361 69.8145C54.1888 69.7252 53.8912 69.5268 53.6432 69.2292C53.3952 68.9315 53.3158 68.5645 53.4051 68.118C53.4646 67.6517 53.7325 67.235 54.1789 66.868C54.6353 66.5108 55.171 66.1834 55.806 65.9056C56.431 65.6278 57.1156 65.36 57.8497 65.1318C58.5839 64.8937 59.2684 64.6655 59.8935 64.4472L60.6475 64.2587C60.836 63.8222 60.9848 63.4254 61.0939 63.0781C61.203 62.7309 61.3022 62.3836 61.4015 62.0166C61.4907 61.6594 61.5999 61.2725 61.709 60.8657C61.8181 60.459 61.9669 59.953 62.1555 59.3577L61.967 59.447C61.5007 59.824 60.9848 60.2109 60.4391 60.5979C59.8935 60.9848 59.2089 61.4213 58.3954 61.8876C58.1771 62.0166 58.0184 61.9769 57.9192 61.7983C57.8596 61.7388 57.8398 61.6594 57.8696 61.5602C57.8993 61.4709 57.9489 61.3915 58.0084 61.3221C59.199 60.5978 60.1316 60.0026 60.8062 59.5363C61.4808 59.07 62.0562 58.6533 62.5225 58.316C62.5523 58.2267 62.6217 58.1473 62.7309 58.0779C62.84 58.0184 62.9392 57.9886 63.0384 57.9886C63.1277 57.9886 63.1972 58.0382 63.2269 58.1275C63.2567 58.2168 63.217 58.3755 63.088 58.5938C62.711 59.7149 62.4233 60.6871 62.2447 61.4808C62.0562 62.2844 61.7785 63.1079 61.4015 63.9512H61.6792C62.4332 63.7031 63.2368 63.4452 64.1 63.1773C64.9631 62.9095 65.8461 62.6019 66.7588 62.2646C67.4831 61.9769 68.1974 61.709 68.9018 61.4411C69.6062 61.1733 70.2411 60.8558 70.8066 60.4788C70.8066 60.4193 70.8661 60.3796 70.9951 60.3597C71.1241 60.3399 71.2134 60.3796 71.2729 60.4788C71.3622 60.5483 71.3721 60.6375 71.3027 60.7566C71.2233 60.8856 71.1539 60.9451 71.0943 60.9451C70.5288 61.3221 69.884 61.6693 69.1399 61.9769C68.4057 62.2944 67.7013 62.5721 67.0465 62.8202C66.0147 63.1972 64.9929 63.5345 63.9909 63.8321C62.9888 64.1297 62.0562 64.4175 61.213 64.7052H61.1237C60.7169 65.6179 60.2308 66.4116 59.6653 67.0862C59.0998 67.7609 58.5144 68.3164 57.8993 68.753C57.2941 69.1895 56.6889 69.507 56.0937 69.6955C55.4984 69.9137 54.9825 69.9435 54.5361 69.8145ZM60.3697 64.9234C59.6454 65.1715 58.9212 65.4195 58.2069 65.6477C57.4826 65.8858 56.8279 66.1437 56.2326 66.4215C55.6373 66.6993 55.1413 66.9969 54.7345 67.2946C54.3277 67.5922 54.1095 67.8997 54.0797 68.2172C54.0202 68.5942 54.0896 68.8423 54.2881 68.9712C54.4865 69.1002 54.6353 69.1895 54.7345 69.2589C55.0817 69.3185 55.4984 69.2689 55.9746 69.0903C56.4608 68.9216 56.9667 68.6438 57.4826 68.2668C57.9985 67.8898 58.5045 67.4235 59.0105 66.858C59.5065 66.2925 59.9629 65.6477 60.3697 64.9234Z" fill="#D9D9D6"/>
<path d="M92.6429 55.8953C92.9207 55.9945 93.01 56.1036 92.9008 56.2425C92.7917 56.3814 92.6429 56.4508 92.4544 56.4508C90.4106 56.1036 88.2082 55.8754 85.847 55.7663C83.4857 55.6572 81.1642 55.5976 78.9121 55.5976C78.2573 56.1334 77.5033 56.7187 76.6799 57.3636C75.8465 58.0085 74.8643 58.7029 73.7433 59.4569L73.1778 59.7446C72.6123 60.1216 72.0765 60.4391 71.5805 60.6871C71.3324 61.0641 71.0943 61.4411 70.8761 61.8181C70.6578 62.1951 70.5487 62.5027 70.5487 62.7606C70.5784 63.1376 70.8463 63.3658 71.3523 63.4452C71.8483 63.5246 72.4734 63.5047 73.2075 63.3956C73.9417 63.2865 74.7651 63.1079 75.658 62.8499C76.5509 62.6019 77.4041 62.3241 78.2177 62.0265C79.0312 61.7289 79.7653 61.4312 80.4003 61.1336C81.0452 60.8359 81.4916 60.5879 81.7396 60.4094C81.9877 60.2506 82.1762 60.2506 82.3051 60.4094C82.4341 60.5681 82.3647 60.7268 82.1166 60.8756C81.7396 61.1931 81.065 61.5602 80.0927 61.9769C79.1205 62.4035 78.0688 62.8003 76.9378 63.1575C75.8068 63.5146 74.7056 63.7924 73.6242 63.9809C72.5428 64.1694 71.6995 64.1694 71.1043 63.9809C70.757 63.9214 70.4892 63.7825 70.2808 63.5841C70.0725 63.3757 69.9733 63.1079 69.9733 62.7606C69.9733 62.5721 69.9931 62.3638 70.0427 62.1455C70.0923 61.9273 70.1915 61.6892 70.3503 61.4411L70.4396 61.3419L69.5963 61.7189C69.5367 61.7785 69.4574 61.7983 69.3681 61.7685C69.2689 61.7388 69.2292 61.6892 69.2292 61.6296C69.1697 61.5007 69.1994 61.3816 69.3185 61.2526L71.1043 60.2208L71.2035 60.1316C71.5507 59.6553 71.9376 59.2089 72.3543 58.7922C72.7809 58.3656 73.1778 57.939 73.5548 57.5025L75.3406 55.6175C73.396 55.677 71.7094 55.7663 70.2808 55.8754C68.8522 55.9846 67.87 56.0838 67.3442 56.183C67.0565 56.2723 66.9076 56.2227 66.8779 56.0143C66.8481 55.8159 67.0069 55.7068 67.3442 55.7068C67.8105 55.5183 68.8621 55.3595 70.4991 55.2405C72.1261 55.1115 74.031 55.0222 76.1938 54.9627C77.2355 54.1194 78.178 53.4547 79.0411 52.9884C79.9042 52.5122 80.5193 52.2046 80.8963 52.0459C80.8963 51.9765 80.9261 51.9467 80.9856 51.9467H81.1741C81.3329 51.9467 81.4519 52.0062 81.5214 52.1153C81.6007 52.2245 81.6404 52.3237 81.6404 52.4229C81.5511 52.9586 80.9162 53.8019 79.7653 54.9627C81.9877 54.9627 84.2497 55.0321 86.5414 55.171C88.8134 55.3099 90.8571 55.548 92.6429 55.8953ZM72.7908 59.1891L72.6023 59.4669L72.9793 59.0898C74.0111 58.4648 74.9437 57.8596 75.7771 57.2743C76.6105 56.6989 77.3347 56.1334 77.9597 55.6076H76.2632C75.4497 56.2921 74.6957 57.0461 74.0012 57.8696L72.7908 59.1891ZM80.4102 53.2662C80.4697 53.167 80.5193 53.1174 80.5491 53.0975C80.5789 53.0777 80.6285 53.0479 80.6979 52.9785L80.8864 52.6908L80.5987 52.79C79.815 53.0975 78.6542 53.8218 77.1164 54.9528H78.7137L80.4102 53.2662Z" fill="#D9D9D6"/>
<path d="M109.667 58.3359C109.39 58.5244 109.102 58.7128 108.824 58.9013C108.348 59.1791 107.753 59.5859 107.038 60.1217L105.719 62.4729C105.967 62.2547 106.364 61.9868 106.89 61.6693C107.425 61.3519 107.991 61.0542 108.586 60.7566C109.181 60.459 109.747 60.2109 110.302 60.0026C110.848 59.8042 111.294 59.7149 111.642 59.7446C112.177 59.7446 112.485 59.9927 112.584 60.4986C112.614 60.7764 112.465 61.1237 112.138 61.5304C111.81 61.9372 111.523 62.3043 111.294 62.6317C111.056 62.9591 110.967 63.1873 111.017 63.3162C111.066 63.4452 111.463 63.346 112.217 63.0384C112.535 62.9095 112.902 62.7507 113.348 62.5424C113.785 62.344 114.251 62.1257 114.737 61.9074C115.223 61.6892 115.699 61.4709 116.176 61.2527C116.642 61.0344 117.049 60.8161 117.396 60.5879C117.584 60.4986 117.733 60.5383 117.842 60.707C117.952 60.8756 117.932 60.9947 117.773 61.0542C117.584 61.1832 117.277 61.3717 116.85 61.6197C116.424 61.8678 115.957 62.1257 115.441 62.3936C114.926 62.6614 114.37 62.9194 113.795 63.1674C113.209 63.4154 112.683 63.6238 112.197 63.7825C111.711 63.9412 111.285 64.0206 110.927 64.0206C110.57 64.0206 110.342 63.9115 110.243 63.6932C110.154 63.5047 110.173 63.2666 110.312 62.9888C110.451 62.7011 110.64 62.4233 110.878 62.1455C111.116 61.8677 111.334 61.58 111.533 61.3022C111.741 61.0145 111.87 60.7864 111.929 60.5979C111.9 60.3796 111.632 60.33 111.136 60.459C110.63 60.5879 110.025 60.8161 109.32 61.1435C108.616 61.4709 107.872 61.8678 107.108 62.3241C106.344 62.7805 105.689 63.2369 105.153 63.7131C105.054 63.8718 104.945 63.9016 104.796 63.8123C104.657 63.7131 104.618 63.594 104.677 63.4353C104.776 63.0583 104.915 62.6515 105.104 62.215C105.292 61.7785 105.53 61.3419 105.808 60.8955L104.677 61.5503C104.459 61.6792 104.3 61.6495 104.211 61.461C104.151 61.3915 104.141 61.3221 104.181 61.2229C104.231 61.1336 104.3 61.0542 104.389 60.9848C104.737 60.7963 105.074 60.5979 105.401 60.3796C105.729 60.1613 106.086 59.9232 106.463 59.6752C106.989 58.8319 107.604 57.9985 108.269 57.185C108.943 56.3715 109.658 55.5976 110.412 54.8833C110.977 54.3476 111.523 53.9011 112.058 53.5241C112.594 53.1471 113.08 52.8197 113.517 52.532C113.953 52.284 114.38 52.0955 114.787 51.9665C115.193 51.8376 115.521 51.8772 115.779 52.0558C116.245 52.4031 116.037 53.1174 115.144 54.1988C114.261 55.2603 112.425 56.6493 109.667 58.3359ZM115.412 52.413C115.342 52.3535 115.203 52.3634 114.965 52.4328C114.727 52.5122 114.35 52.7205 113.814 53.0678C112.435 53.9111 111.215 54.8833 110.173 55.9647C109.122 57.0461 108.328 57.9985 107.792 58.8121L109.013 58.0581C109.608 57.6513 110.302 57.1751 111.106 56.6294C111.91 56.0838 112.654 55.5282 113.338 54.9627C114.023 54.3972 114.578 53.8912 115.005 53.4348C115.432 52.9686 115.57 52.6312 115.412 52.413Z" fill="#D9D9D6"/>
<path d="M115.6 64.1794C115.223 63.9611 115.084 63.6238 115.174 63.1674C115.263 62.721 115.501 62.2745 115.878 61.8479C116.255 61.4213 116.721 61.0443 117.287 60.7169C117.852 60.3895 118.418 60.2208 118.983 60.2208C119.36 60.2208 119.698 60.3002 119.995 60.459C120.293 60.6177 120.491 60.7864 120.581 60.9749C120.64 61.0641 120.62 61.1534 120.511 61.2328C120.402 61.3122 120.303 61.3221 120.204 61.2626C120.045 61.1633 119.896 61.0641 119.757 60.955C119.618 60.8459 119.36 60.7864 118.983 60.7864C118.606 60.7864 118.2 60.9153 117.763 61.1633C117.326 61.4114 116.94 61.6991 116.612 62.0364C116.285 62.3638 116.047 62.6813 115.908 62.9789C115.769 63.2765 115.789 63.4849 115.977 63.6138C116.265 63.6833 116.632 63.6039 117.108 63.4055C117.575 63.1972 118.071 62.9491 118.586 62.6515C119.102 62.3539 119.608 62.0364 120.094 61.6892C120.581 61.3419 120.997 61.0443 121.345 60.7963C121.662 60.5482 121.87 60.5185 121.979 60.707C122.089 60.8955 122.069 61.0542 121.91 61.1733C121.503 61.461 121.225 61.8082 121.087 62.2348C120.948 62.6614 120.987 62.9194 121.206 63.0087C121.424 63.098 121.781 63.0483 122.287 62.84C122.793 62.6416 123.309 62.3936 123.845 62.1158C124.38 61.838 124.876 61.5503 125.353 61.2725C125.829 60.9848 126.117 60.7963 126.246 60.707C126.434 60.6177 126.583 60.6574 126.692 60.8459C126.801 61.0344 126.781 61.1733 126.623 61.2725C126.404 61.3915 126.057 61.6098 125.591 61.9074C125.124 62.2051 124.609 62.4928 124.063 62.7805C123.517 63.0583 122.962 63.2964 122.416 63.4849C121.87 63.6734 121.424 63.723 121.077 63.6238C120.729 63.5345 120.521 63.3261 120.442 63.0186C120.362 62.7011 120.402 62.4035 120.561 62.1257C120.214 62.3737 119.807 62.6515 119.34 62.9491C118.874 63.2468 118.378 63.5047 117.882 63.723C117.376 63.9412 116.93 64.1099 116.523 64.219C116.086 64.3083 115.789 64.2984 115.6 64.1794Z" fill="#D9D9D6"/>
<path d="M126.414 62.2943L126.692 61.8281C126.781 61.6693 126.871 61.5205 126.95 61.3816C127.029 61.2427 127.099 61.0741 127.158 60.8856V60.7864L127.069 60.8856L126.781 61.0741C126.533 61.2328 126.275 61.3915 126.027 61.5404C125.779 61.6991 125.561 61.8281 125.363 61.9174C125.174 62.0066 125.015 61.9471 124.896 61.7289C124.767 61.5999 124.827 61.4808 125.085 61.3519C125.273 61.2626 125.492 61.1435 125.74 61.0245C125.988 60.8955 126.206 60.7566 126.394 60.5979L126.861 60.2209L127.148 59.9431V59.8439C127.208 59.6851 127.307 59.5958 127.436 59.5859C127.565 59.576 127.654 59.6554 127.714 59.8439L127.813 60.0323C127.902 60.4689 127.843 60.9153 127.625 61.3519C127.902 61.1633 128.299 60.9054 128.795 60.578C129.301 60.2506 129.817 59.9431 130.373 59.6653C130.918 59.3776 131.454 59.1593 131.97 59.0105C132.486 58.8517 132.912 58.8517 133.26 59.0105C133.448 59.0998 133.538 59.2585 133.538 59.4768C133.538 59.695 133.498 59.9232 133.418 60.1613C133.339 60.3994 133.24 60.6276 133.111 60.8459C132.982 61.0641 132.903 61.2427 132.873 61.3618V61.4511C133.161 61.2626 133.518 61.0344 133.954 60.7665C134.391 60.4986 134.847 60.2605 135.323 60.0621C135.79 59.8637 136.256 59.705 136.712 59.6157C137.169 59.5264 137.546 59.5363 137.863 59.6653C138.141 59.7546 138.24 59.953 138.141 60.2308V60.4193C138.141 60.4788 138.111 60.5482 138.052 60.6078C137.893 60.8955 137.655 61.203 137.347 61.5503C137.04 61.8975 136.792 62.2051 136.623 62.4928C136.454 62.7805 136.454 62.969 136.623 63.0781C136.792 63.1873 137.308 63.1476 138.151 62.9591C140.373 62.4928 142.258 61.7685 143.796 60.7963C143.855 60.707 143.935 60.6673 144.034 60.707C144.123 60.7368 144.173 60.7963 144.173 60.8955C144.302 61.0245 144.302 61.1435 144.173 61.2725C143.26 61.838 142.278 62.3241 141.236 62.7309C140.185 63.1376 139.153 63.4353 138.151 63.6238C137.278 63.7825 136.653 63.8024 136.296 63.6932C135.938 63.5841 135.74 63.4154 135.71 63.1773C135.68 62.9392 135.77 62.6614 135.968 62.334C136.177 62.0066 136.395 61.6792 136.623 61.3717C136.861 61.0542 137.059 60.7963 137.238 60.5979C137.407 60.3895 137.466 60.2804 137.407 60.2506C137.188 60.1613 136.831 60.1911 136.345 60.3399C135.859 60.4986 135.333 60.7268 134.768 61.0245C134.202 61.3221 133.637 61.6594 133.071 62.0364C132.506 62.4134 132.069 62.7607 131.752 63.0682C131.662 63.1575 131.573 63.2666 131.494 63.3758C131.414 63.4849 131.345 63.5742 131.285 63.6337H131.186C131.027 63.6337 130.908 63.5841 130.809 63.465C130.72 63.3559 130.72 63.2567 130.809 63.1575C131.246 62.6218 131.613 62.1158 131.91 61.6296C132.208 61.1435 132.426 60.7367 132.575 60.4094C132.714 60.082 132.774 59.8339 132.764 59.6554C132.744 59.4867 132.635 59.4272 132.416 59.4867C132.069 59.5561 131.633 59.7149 131.097 59.9828C130.561 60.2506 130.016 60.5681 129.45 60.9253C128.885 61.2824 128.339 61.6495 127.803 62.0265C127.267 62.4035 126.831 62.7507 126.484 63.0583C126.394 63.1476 126.305 63.2567 126.226 63.3658C126.146 63.475 126.077 63.5643 126.017 63.6238H125.918C125.759 63.6238 125.64 63.5742 125.541 63.4551C125.452 63.346 125.452 63.2468 125.541 63.1476L126.414 62.2943Z" fill="#D9D9D6"/>
<path d="M135.075 74.0508C135.075 73.6143 135.244 73.0587 135.571 72.3841C135.899 71.7094 136.335 70.9753 136.861 70.1717C137.397 69.3681 138.002 68.5446 138.696 67.7013C139.391 66.858 140.095 66.0247 140.82 65.2111C141.256 64.7746 141.722 64.2984 142.228 63.7825C142.724 63.2666 143.26 62.7706 143.826 62.3043L143.925 62.2051L144.113 61.8281C144.113 61.7388 144.133 61.6495 144.163 61.5701C144.193 61.4907 144.213 61.4213 144.213 61.3618V61.1733L143.935 61.461C143.468 61.7388 143.151 61.967 142.992 62.1158C142.744 62.1158 142.586 62.0562 142.526 61.9273C142.457 61.7685 142.526 61.6495 142.714 61.5503C142.903 61.461 143.191 61.2824 143.588 61.0145C143.974 60.7467 144.222 60.4887 144.312 60.2407C144.401 60.0522 144.54 59.9629 144.709 59.9827C144.877 60.0026 144.967 60.082 144.967 60.2407V60.8062C144.967 60.9947 144.937 61.203 144.877 61.4213L144.967 61.3717C145.721 60.8062 146.395 60.3697 146.99 60.0522C147.586 59.7446 148.072 59.6752 148.449 59.8637C148.885 60.1514 149.084 60.5085 149.034 60.9451C148.985 61.3816 148.786 61.8677 148.449 62.4035L148.072 62.969L148.538 62.8797C149.193 62.592 149.937 62.2646 150.751 61.8876C151.564 61.5106 152.239 61.1534 152.774 60.8062C152.834 60.7169 152.913 60.6772 153.013 60.6871C153.112 60.707 153.181 60.7467 153.251 60.8062C153.251 61.0542 153.221 61.213 153.161 61.2824C152.437 61.8181 151.534 62.3043 150.433 62.7408C149.332 63.1872 148.33 63.5742 147.427 63.9214H147.328L147.139 64.1099C146.484 64.8341 145.73 65.4294 144.907 65.9155C144.074 66.4017 143.349 66.5505 142.724 66.362L142.347 67.0267C142.06 67.4632 141.792 67.8997 141.524 68.3462C141.256 68.7827 140.998 69.2193 140.75 69.6657C140.185 70.5784 139.609 71.392 139.034 72.1162C138.448 72.8404 137.933 73.4357 137.456 73.902C137.208 74.15 136.97 74.3484 136.752 74.4873C136.534 74.6262 136.296 74.7453 136.048 74.8445C135.512 74.9338 135.204 74.7155 135.105 74.1798V74.0508H135.075ZM136.95 73.396C137.387 72.9595 137.893 72.3841 138.458 71.6797C139.024 70.9753 139.589 70.1717 140.145 69.2589L141.841 66.6199L142.119 65.9651L142.03 65.7766V65.4989C142.119 65.3104 142.318 65.1218 142.595 64.9333L142.685 64.8441L143.151 64.0008L143.34 63.6238L142.397 64.4671C142.209 64.6556 142.02 64.8441 141.832 65.0326C141.643 65.2211 141.455 65.4393 141.266 65.6973C140.542 66.4513 139.877 67.2152 139.242 67.999C138.617 68.7827 138.052 69.5268 137.546 70.2312C137.04 70.9356 136.623 71.6003 136.296 72.2353C135.968 72.8603 135.77 73.3762 135.71 73.7829L135.621 73.9714L135.71 74.1599H135.899C136.107 74.15 136.454 73.8921 136.95 73.396ZM146.078 64.3579L145.423 64.4472C145.046 64.606 144.699 64.725 144.361 64.8242C144.034 64.9135 143.726 65.0127 143.449 65.1119L143.171 65.3004L143.082 65.5881L142.982 65.7766H142.794C143.072 65.9354 143.459 65.9056 143.945 65.7072C144.431 65.4988 144.957 65.1814 145.522 64.7449L146.078 64.3579ZM146.931 63.3261L147.219 63.1376C147.784 62.4134 148.141 61.8181 148.28 61.3518C148.419 60.8856 148.35 60.5979 148.072 60.5086C147.883 60.2308 147.07 60.5979 145.621 61.6396C145.463 61.7983 145.304 61.9273 145.125 62.0364C144.957 62.1455 144.778 62.2943 144.59 62.4828L144.5 62.5721L144.213 63.0384C144.153 63.2269 144.084 63.4254 144.004 63.6238C143.925 63.8222 143.836 64.0504 143.746 64.3083L144.123 64.2587C144.371 64.1694 144.649 64.0702 144.947 63.9809C145.244 63.8817 145.532 63.7924 145.82 63.6932L146.931 63.3261Z" fill="#D9D9D6"/>
<path d="M151.911 56.2723C151.852 56.2723 151.703 56.2921 151.485 56.3219C151.266 56.3516 151.157 56.2723 151.157 56.0838C151.157 55.925 151.237 55.8159 151.395 55.7564C151.455 55.7266 151.534 55.7068 151.634 55.7068C152.447 55.6076 153.409 55.5381 154.53 55.4984C155.642 55.4488 156.812 55.429 158.033 55.429C158.31 55.1809 158.717 54.8635 159.233 54.4666C159.749 54.0698 160.285 53.6928 160.83 53.3158C161.376 52.9388 161.902 52.6213 162.408 52.3535C162.904 52.0856 163.301 51.9566 163.578 51.9566C163.737 51.9566 163.856 52.0062 163.936 52.1153C164.015 52.2245 164.055 52.3237 164.055 52.4229C163.985 52.7701 163.727 53.1868 163.251 53.6928C162.785 54.1988 162.17 54.7742 161.416 55.429L165.176 55.7167L165.454 55.806C165.612 55.9052 165.672 56.0242 165.642 56.183C165.612 56.2723 165.473 56.3219 165.215 56.3219C165.086 56.3219 164.977 56.302 164.888 56.2723C164.164 56.2127 163.459 56.1631 162.765 56.1334C162.08 56.1036 161.366 56.0838 160.652 56.0838C159.59 56.9568 158.499 57.8001 157.408 58.6037C156.306 59.4073 155.165 60.1018 153.975 60.6971C153.757 60.9451 153.548 61.2824 153.36 61.709C153.171 62.1356 153.072 62.4729 153.072 62.721C153.102 63.098 153.36 63.3261 153.846 63.4055C154.332 63.4849 154.947 63.475 155.681 63.3758C156.415 63.2865 157.229 63.098 158.102 62.8301C158.985 62.5622 159.828 62.2844 160.642 62.0066C161.455 61.7289 162.18 61.4312 162.805 61.1336C163.43 60.8359 163.866 60.5879 164.124 60.4094C164.372 60.2506 164.561 60.2506 164.69 60.4094C164.819 60.5681 164.749 60.7268 164.501 60.8756C164.124 61.1931 163.45 61.5602 162.477 61.9868C161.505 62.4134 160.453 62.8003 159.322 63.1575C158.191 63.5246 157.09 63.7924 156.009 63.9809C154.927 64.1694 154.084 64.1694 153.489 63.9809C153.142 63.9214 152.864 63.7825 152.665 63.5841C152.457 63.3757 152.358 63.1079 152.358 62.7606C152.358 62.5721 152.388 62.3638 152.427 62.1455C152.477 61.9273 152.576 61.6892 152.735 61.4411L152.834 61.3518L151.991 61.7289C151.921 61.7884 151.852 61.8082 151.753 61.7785C151.663 61.7487 151.614 61.6991 151.614 61.6396C151.544 61.5106 151.584 61.3915 151.703 61.2626L153.489 60.2308C153.866 59.695 154.362 59.0899 154.967 58.4152C155.582 57.7406 156.336 56.9667 157.249 56.0838C156.247 56.0838 155.284 56.0937 154.382 56.1036C153.499 56.1235 152.665 56.1731 151.911 56.2723ZM154.689 59.6554C155.79 58.9014 156.763 58.2366 157.606 57.6513C158.449 57.066 159.193 56.5401 159.818 56.0738H158.221C157.943 56.3219 157.537 56.6989 157.001 57.2048C156.465 57.7108 155.691 58.5343 154.689 59.6554ZM163.013 52.79C162.576 52.9785 162.001 53.286 161.297 53.7126C160.592 54.1392 159.779 54.7047 158.876 55.429H160.572C161.108 54.9627 161.634 54.4765 162.15 53.9706C162.666 53.4745 163.053 53.0479 163.301 52.7007L163.013 52.79Z" fill="#D9D9D6"/>
<path d="M163.39 63.5146C163.013 63.2071 162.854 62.8301 162.924 62.4134C162.983 61.9868 163.172 61.58 163.489 61.1931C163.797 60.8062 164.174 60.449 164.62 60.1316C165.057 59.8141 165.444 59.5958 165.801 59.4668C165.86 59.4371 165.969 59.4172 166.108 59.4172C166.247 59.4172 166.317 59.4668 166.317 59.5561C166.376 59.6851 166.346 59.8042 166.227 59.9331C165.979 60.1514 165.652 60.4093 165.265 60.707C164.878 61.0046 164.491 61.2725 164.114 61.5304C163.737 61.9967 163.608 62.4233 163.737 62.8003C163.836 63.0781 164.114 63.2269 164.581 63.2269C165.047 63.2269 165.573 63.088 166.138 62.8003C165.791 62.4829 165.642 62.0959 165.692 61.6197C165.741 61.1435 165.89 60.6971 166.158 60.2605C166.426 59.824 166.763 59.447 167.17 59.1295C167.577 58.8121 167.954 58.6732 168.301 58.7029C168.39 58.7029 168.47 58.7128 168.539 58.7228C168.599 58.7426 168.678 58.7922 168.777 58.8914C168.966 59.1395 169.015 59.4569 168.946 59.8339C168.866 60.2109 168.728 60.5879 168.519 60.9649C168.311 61.3419 168.093 61.6892 167.835 61.9967C167.587 62.3142 167.398 62.5027 167.269 62.5622C167.587 62.6317 168.013 62.592 168.559 62.4432C169.105 62.3043 169.67 62.1257 170.255 61.9273C170.831 61.7189 171.396 61.4907 171.932 61.2427C172.458 60.9947 172.855 60.7764 173.103 60.5879C173.351 60.5879 173.48 60.6574 173.48 60.7764C173.539 60.9054 173.509 61.0245 173.39 61.1534C173.073 61.3717 172.636 61.6197 172.071 61.8876C171.505 62.1555 170.9 62.3936 170.255 62.6118C169.61 62.8301 168.976 62.9987 168.331 63.1079C167.686 63.217 167.15 63.2269 166.704 63.1277C165.89 63.6635 165.196 63.9115 164.63 63.8817C164.055 63.8619 163.638 63.7329 163.39 63.5146ZM168.192 59.2783C167.974 59.2486 167.725 59.3676 167.438 59.6355C167.16 59.9034 166.912 60.201 166.714 60.5482C166.515 60.8955 166.376 61.2427 166.317 61.6098C166.257 61.9769 166.346 62.2348 166.604 62.3836C166.852 62.1654 167.11 61.8876 167.358 61.5602C167.606 61.2328 167.825 60.9054 167.993 60.5681C168.162 60.2407 168.281 59.953 168.321 59.695C168.351 59.4569 168.311 59.318 168.192 59.2783Z" fill="#D9D9D6"/>
<path d="M172.329 63.1376C172.428 63.0484 172.517 62.9492 172.617 62.8599C172.706 62.7706 172.805 62.6416 172.894 62.4829C173.242 62.1951 173.48 61.9273 173.619 61.6594C173.767 61.3915 173.857 61.1336 173.926 60.8856V60.7864L173.827 60.8856C173.767 60.9451 173.718 60.9749 173.688 60.9749C173.658 60.9749 173.609 61.0046 173.549 61.0642C173.301 61.2229 173.043 61.3816 172.795 61.5304C172.547 61.6892 172.319 61.8181 172.13 61.9074C171.942 61.9967 171.783 61.9372 171.664 61.7189C171.535 61.59 171.605 61.4709 171.853 61.3419C172.041 61.2527 172.259 61.1336 172.507 61.0145C172.755 60.8856 172.974 60.7467 173.162 60.5879C173.222 60.5284 173.271 60.4887 173.301 60.4689C173.331 60.449 173.38 60.4193 173.44 60.3498C173.5 60.3201 173.569 60.2705 173.629 60.2109L173.916 59.9332V59.8339C173.976 59.6752 174.075 59.5859 174.194 59.576C174.323 59.5661 174.412 59.6454 174.482 59.8339C174.571 60.1812 174.601 60.4689 174.571 60.707C174.541 60.9451 174.482 61.1832 174.383 61.4411C175.008 61.0344 175.603 60.6971 176.168 60.4292C176.734 60.1613 177.23 59.9828 177.647 59.8835C178.073 59.7943 178.401 59.8141 178.639 59.953C178.877 60.0919 178.986 60.3697 178.986 60.7764C178.986 61.461 179.085 62.1356 179.293 62.7805C179.502 63.4254 179.829 63.9809 180.286 64.4472C180.742 64.9135 181.337 65.2608 182.071 65.479C182.805 65.6973 183.728 65.727 184.829 65.5683C185.206 65.5385 185.663 65.4393 186.189 65.2806C186.724 65.1219 187.26 64.9334 187.816 64.6953C188.361 64.4572 188.887 64.1893 189.393 63.8916C189.899 63.594 190.316 63.2765 190.663 62.9293C190.881 62.8003 191.04 62.84 191.129 63.0186C191.189 63.1079 191.219 63.1773 191.199 63.2071C191.179 63.2369 191.129 63.2964 191.03 63.3956C190.653 63.7726 190.187 64.1198 189.641 64.4274C189.095 64.7449 188.53 65.0127 187.945 65.2508C187.359 65.4889 186.784 65.6874 186.208 65.8659C185.623 66.0346 185.137 66.1537 184.73 66.2231C183.381 66.4116 182.29 66.3124 181.436 65.9354C180.593 65.5584 179.928 65.0623 179.462 64.4274C178.996 63.8024 178.668 63.1277 178.5 62.4035C178.331 61.6792 178.242 61.0741 178.242 60.5681C177.895 60.5383 177.498 60.5979 177.041 60.7566C176.585 60.9153 176.139 61.1138 175.702 61.3419C175.266 61.58 174.839 61.838 174.432 62.1158C174.025 62.4035 173.698 62.6317 173.44 62.8202C173.281 63.0087 173.142 63.1773 173.013 63.3361C172.884 63.4948 172.775 63.5742 172.686 63.5742C172.498 63.7627 172.339 63.7825 172.22 63.6238C172.111 63.5047 172.14 63.3261 172.329 63.1376Z" fill="#D9D9D6"/>
</svg>
