<svg width="72" height="16" viewBox="0 0 72 16" fill="none" xmlns="http://www.w3.org/2000/svg">
<path opacity="0.6" d="M3.36 2.464C3.36 1.952 3.376 1.888 4.224 1.888C5.888 1.888 6.8 2.896 6.8 4.448C6.8 5.84 6.176 6.816 4.448 7.136C4.352 7.168 4.352 7.408 4.464 7.456C5.12 7.456 5.968 7.312 6.672 6.976C7.36 6.64 8.272 5.904 8.272 4.432C8.272 3.328 7.728 2.496 6.992 2.032C6.24 1.568 5.248 1.392 3.92 1.392C2.592 1.392 1.6 1.408 0.752 1.52C0.624 1.584 0.608 1.824 0.72 1.92L1.296 1.984C2.016 2.064 2.048 2.336 2.048 3.696V9.6C2.048 11.28 2.016 11.472 1.088 11.6L0.752 11.648C0.656 11.744 0.688 12 0.784 12.048C1.488 12.016 2.064 12 2.736 12C3.376 12 3.904 12.016 4.816 12.048C4.912 12 4.944 11.728 4.848 11.648L4.416 11.6C3.392 11.488 3.36 11.28 3.36 9.6V2.464ZM11.8899 5.472C10.0019 5.472 8.48188 6.912 8.48188 8.928C8.48188 10.928 9.92188 12.224 11.7619 12.224C13.7619 12.224 15.1379 10.784 15.1379 8.784C15.1379 6.816 13.6819 5.472 11.8899 5.472ZM13.7619 9.04C13.7619 10.272 13.3299 11.744 11.9219 11.744C10.5139 11.744 9.85788 10.176 9.85788 8.72C9.85788 6.96 10.6419 5.952 11.6979 5.952C13.2179 5.952 13.7619 7.68 13.7619 9.04ZM18.1876 10.864C18.3156 11.2 18.5716 11.856 18.6676 12.192C18.7156 12.24 18.7956 12.256 18.8596 12.256C18.9396 12.256 19.0036 12.24 19.0516 12.192C19.1796 11.824 19.4036 11.248 19.6916 10.56L20.5236 8.56C20.6356 8.272 20.8596 7.776 20.8756 7.776C20.8916 7.776 21.1316 8.304 21.2436 8.592L22.0116 10.432C22.2836 11.072 22.5716 11.904 22.6676 12.192C22.7156 12.24 22.7796 12.256 22.8436 12.256C22.9236 12.256 22.9876 12.24 23.0516 12.192C23.1796 11.776 23.3716 11.312 23.5956 10.736C23.8996 9.92 24.6676 8 25.0996 7.104C25.4356 6.4 25.5796 6.176 25.9636 6.096L26.2836 6.032C26.3796 5.952 26.3636 5.712 26.2356 5.648C25.8836 5.68 25.4996 5.696 25.1956 5.696C24.7956 5.696 24.3956 5.68 23.9316 5.648C23.8196 5.696 23.7876 5.952 23.9156 6.032L24.3156 6.096C24.5076 6.128 24.6036 6.208 24.6036 6.304C24.6036 6.416 24.5716 6.624 24.4436 6.992C24.2036 7.664 23.5636 9.36 23.3556 9.824C23.2436 10.08 23.1636 10.24 23.1316 10.272C23.0836 10.24 23.0196 10.064 22.9236 9.824C22.7476 9.392 21.8836 7.36 21.7076 6.832C21.5156 6.272 21.4836 6.224 22.1236 6.096L22.4596 6.032C22.5556 5.952 22.5556 5.696 22.4116 5.648C21.8676 5.68 21.3876 5.696 20.8916 5.696C20.4756 5.696 19.9636 5.68 19.5636 5.648C19.4356 5.696 19.4036 5.936 19.5156 6.032L19.7716 6.096C20.1236 6.176 20.3636 6.304 20.5076 6.656C20.5876 6.864 20.5716 7.072 20.3636 7.584L19.5796 9.52C19.3876 9.984 19.2596 10.256 19.2116 10.288C19.2116 10.256 19.0676 9.968 18.9236 9.6L17.9316 7.152C17.7556 6.72 17.6756 6.416 17.6756 6.32C17.6756 6.224 17.8036 6.128 18.0276 6.096L18.3956 6.032C18.5076 5.952 18.4916 5.712 18.3636 5.648C17.9316 5.68 17.4676 5.696 16.9716 5.696C16.4916 5.696 16.0436 5.68 15.5476 5.648C15.4036 5.712 15.4196 5.952 15.4996 6.032L15.7556 6.096C16.1556 6.192 16.3476 6.352 16.7156 7.248L18.1876 10.864ZM31.0244 7.904C31.6964 7.904 31.9204 7.888 31.9684 7.792C32.0004 7.728 32.0324 7.6 32.0324 7.376C32.0324 6.416 31.1364 5.472 29.7604 5.472C27.8404 5.472 26.5444 7.12 26.5444 9.088C26.5444 9.792 26.7364 10.544 27.2164 11.168C27.6804 11.776 28.4964 12.224 29.5364 12.224C30.3684 12.224 31.5204 11.824 32.0484 10.736C32.0324 10.592 31.9204 10.496 31.7604 10.544C31.2644 11.168 30.8164 11.328 30.2884 11.328C28.5764 11.328 27.6324 9.952 27.6324 8.336C27.6324 7.936 27.6484 7.904 28.0644 7.904H31.0244ZM27.9204 7.424C27.8084 7.424 27.8084 7.376 27.8084 7.344C27.8244 6.816 28.6404 5.952 29.5844 5.952C30.5124 5.952 30.8164 6.512 30.8164 6.96C30.8164 7.168 30.7684 7.232 30.7204 7.264C30.5924 7.36 30.2404 7.424 29.0564 7.424H27.9204ZM33.8961 10.208C33.8961 11.36 33.8801 11.504 33.2881 11.6L32.9841 11.648C32.8721 11.728 32.9041 12 33.0161 12.048C33.4321 12.016 33.9121 12 34.4881 12C35.0481 12 35.5121 12.016 36.2641 12.048C36.3761 12 36.4081 11.728 36.2961 11.648L35.7201 11.6C35.1121 11.552 35.0801 11.36 35.0801 10.208V8.032C35.0801 7.488 35.1281 7.024 35.2881 6.8C35.4161 6.624 35.6081 6.48 35.8641 6.48C36.0881 6.48 36.3281 6.576 36.5681 6.736C36.6801 6.8 36.7601 6.848 36.9201 6.848C37.1761 6.848 37.6081 6.64 37.6081 6.112C37.6081 5.728 37.2881 5.472 36.8881 5.472C36.2961 5.472 35.6881 5.968 35.1281 6.432C35.0961 6.416 35.0801 6.368 35.0801 6.288V5.36C35.0801 5.296 35.0321 5.264 34.9521 5.248C34.5521 5.488 33.7041 5.904 33.3361 6.032C33.2561 6.08 33.2561 6.256 33.3201 6.32L33.4641 6.416C33.8961 6.704 33.8961 6.784 33.8961 7.408V10.208ZM42.5244 7.904C43.1964 7.904 43.4204 7.888 43.4684 7.792C43.5004 7.728 43.5324 7.6 43.5324 7.376C43.5324 6.416 42.6364 5.472 41.2604 5.472C39.3404 5.472 38.0444 7.12 38.0444 9.088C38.0444 9.792 38.2364 10.544 38.7164 11.168C39.1804 11.776 39.9964 12.224 41.0364 12.224C41.8684 12.224 43.0204 11.824 43.5484 10.736C43.5324 10.592 43.4204 10.496 43.2604 10.544C42.7644 11.168 42.3164 11.328 41.7884 11.328C40.0764 11.328 39.1324 9.952 39.1324 8.336C39.1324 7.936 39.1484 7.904 39.5644 7.904H42.5244ZM39.4204 7.424C39.3084 7.424 39.3084 7.376 39.3084 7.344C39.3244 6.816 40.1404 5.952 41.0844 5.952C42.0124 5.952 42.3164 6.512 42.3164 6.96C42.3164 7.168 42.2684 7.232 42.2204 7.264C42.0924 7.36 41.7404 7.424 40.5564 7.424H39.4204ZM50.6121 2.64C50.6121 1.936 50.6441 1.136 50.6601 0.655999C50.6281 0.591999 50.5641 0.559999 50.5001 0.559999C49.9241 0.863999 49.1721 1.104 48.7721 1.232C48.6921 1.28 48.6921 1.504 48.7721 1.552L48.9321 1.648C49.4121 1.936 49.4281 2.032 49.4281 2.976V5.392C49.4281 5.52 49.4121 5.616 49.3321 5.616C49.1561 5.552 48.8041 5.472 48.2601 5.472C46.0841 5.472 44.3881 6.912 44.3881 9.152C44.3881 10.832 45.5721 12.224 47.3481 12.224C48.1161 12.224 48.6601 11.968 49.3641 11.488H49.4281C49.4601 11.552 49.4601 11.744 49.4601 11.984V12.256C49.4601 12.336 49.5401 12.384 49.6361 12.384C50.0841 12.208 51.0761 11.968 51.7481 11.872C51.8921 11.792 51.8761 11.392 51.7641 11.36C51.5241 11.44 51.2521 11.52 51.0761 11.52C50.6281 11.52 50.6121 10.928 50.6121 9.664V2.64ZM49.4281 10.416C49.4281 10.672 49.4121 10.912 49.3161 11.008C49.0601 11.264 48.5161 11.456 48.0841 11.456C46.5161 11.456 45.7001 10.08 45.7001 8.624C45.7001 7.232 46.4521 5.968 47.9081 5.968C48.5321 5.968 49.0121 6.304 49.2521 6.64C49.3641 6.8 49.4281 6.944 49.4281 7.264V10.416ZM57.1688 10.608C57.1688 11.44 57.1528 11.744 57.1368 11.968C57.1688 12.032 57.2328 12.064 57.2968 12.064C57.3288 12.064 57.3448 12.064 57.3608 12.048C57.4408 11.936 57.5688 11.808 57.6968 11.808C57.8248 11.808 58.0328 11.904 58.3688 12.016C58.6888 12.112 59.1368 12.224 59.7288 12.224C61.8728 12.224 63.4088 10.736 63.4088 8.608C63.4088 6.848 62.1768 5.472 60.3528 5.472C59.5688 5.472 58.9288 5.76 58.5128 6C58.4168 6 58.3528 5.936 58.3528 5.664V2.64C58.3528 1.936 58.3848 1.216 58.4168 0.655999C58.3848 0.591999 58.3207 0.559999 58.2568 0.559999C57.6488 0.879999 56.8808 1.088 56.5128 1.232C56.4328 1.28 56.4328 1.504 56.5128 1.552L56.6728 1.648C57.1528 1.936 57.1688 2.032 57.1688 2.976V10.608ZM58.3528 7.328C58.3528 6.704 58.3848 6.528 58.5448 6.416C58.7688 6.272 59.1528 6.16 59.6328 6.16C61.2168 6.16 62.0648 7.44 62.0648 9.088C62.0648 10.464 61.4728 11.744 59.9688 11.744C59.4568 11.744 59.0248 11.552 58.7528 11.216C58.4808 10.88 58.3528 10.384 58.3528 9.824V7.328ZM64.963 15.984C65.331 15.984 65.715 15.84 65.987 15.232C66.771 13.488 68.083 10.704 68.611 9.632L69.507 7.792C70.051 6.656 70.339 6.192 70.867 6.096L71.139 6.048C71.251 5.952 71.235 5.712 71.107 5.648C70.659 5.68 70.291 5.696 69.891 5.696C69.475 5.696 68.995 5.68 68.483 5.648C68.355 5.696 68.339 5.968 68.451 6.048L68.947 6.128C69.235 6.176 69.331 6.288 69.331 6.4C69.331 6.576 69.123 7.168 68.771 8L68.227 9.264C67.939 9.92 67.683 10.416 67.635 10.448C67.571 10.416 67.267 9.568 67.171 9.312L66.659 7.84C66.563 7.568 66.195 6.528 66.195 6.336C66.195 6.224 66.323 6.176 66.547 6.128L66.947 6.048C67.059 5.968 67.043 5.696 66.915 5.648C66.403 5.68 65.955 5.696 65.523 5.696C64.995 5.696 64.515 5.68 64.003 5.648C63.875 5.696 63.859 5.968 63.955 6.048L64.355 6.128C64.915 6.24 65.027 6.624 65.299 7.376L66.547 10.8C66.755 11.392 66.819 11.584 66.819 11.904C66.819 12.128 66.707 12.464 66.659 12.592C66.515 12.976 66.195 13.648 65.731 14.368C65.619 14.544 65.459 14.656 65.203 14.656H64.899C64.547 14.656 64.259 14.864 64.259 15.296C64.259 15.696 64.499 15.984 64.963 15.984Z" fill="#D9D9D6"/>
</svg>
