<svg width="32" height="32" viewBox="0 0 32 32" fill="none" xmlns="http://www.w3.org/2000/svg">
<rect x="0.5" y="0.5" width="31" height="31" stroke="#1B3A5C"/>
<path fill-rule="evenodd" clip-rule="evenodd" d="M8.8 16.3152C8.8 16.1881 8.85408 16.0662 8.95034 15.9762C9.0466 15.8863 9.17716 15.8358 9.3133 15.8358H21.4199L18.1892 12.8194C18.1415 12.7749 18.1036 12.7219 18.0778 12.6637C18.052 12.6055 18.0387 12.543 18.0387 12.48C18.0387 12.417 18.052 12.3546 18.0778 12.2963C18.1036 12.2381 18.1415 12.1852 18.1892 12.1406C18.2369 12.096 18.2936 12.0607 18.356 12.0365C18.4183 12.0124 18.4851 12 18.5526 12C18.6201 12 18.687 12.0124 18.7493 12.0365C18.8117 12.0607 18.8683 12.096 18.916 12.1406L23.0224 15.9758C23.0702 16.0203 23.1081 16.0733 23.134 16.1315C23.1599 16.1897 23.1732 16.2522 23.1732 16.3152C23.1732 16.3783 23.1599 16.4407 23.134 16.499C23.1081 16.5572 23.0702 16.6101 23.0224 16.6547L18.916 20.4899C18.8683 20.5344 18.8117 20.5698 18.7493 20.5939C18.687 20.6181 18.6201 20.6305 18.5526 20.6305C18.4851 20.6305 18.4183 20.6181 18.356 20.5939C18.2936 20.5698 18.2369 20.5344 18.1892 20.4899C18.1415 20.4453 18.1036 20.3924 18.0778 20.3342C18.052 20.2759 18.0387 20.2135 18.0387 20.1505C18.0387 20.0874 18.052 20.025 18.0778 19.9668C18.1036 19.9085 18.1415 19.8556 18.1892 19.811L21.4199 16.7946H9.3133C9.17716 16.7946 9.0466 16.7441 8.95034 16.6542C8.85408 16.5643 8.8 16.4424 8.8 16.3152Z" fill="#1B3A5C"/>
</svg>
