<svg width="32" height="32" viewBox="0 0 32 32" fill="none" xmlns="http://www.w3.org/2000/svg">
<rect x="0.5" y="0.5" width="31" height="31" rx="9.5" stroke="white"/>
<path d="M24.2976 13.4951L25.8372 11.8331H22.423C20.7138 10.6747 18.6496 10 16.4172 10C14.1876 10 12.1291 10.6761 10.4227 11.8331H7L8.5396 13.4951C7.5959 14.3494 7.00429 15.5799 7.00429 16.9463C7.00429 19.5248 9.11128 21.6153 11.7101 21.6153C12.9446 21.6153 14.0693 21.1429 14.909 20.3706L16.4172 22L17.9254 20.372C18.7651 21.1443 19.8884 21.6153 21.1229 21.6153C23.7217 21.6153 25.8315 19.5248 25.8315 16.9463C25.8329 15.5785 25.2414 14.348 24.2976 13.4951ZM11.7114 20.1061C9.9523 20.1061 8.52679 18.6917 8.52679 16.9463C8.52679 15.2008 9.95234 13.7864 11.7114 13.7864C13.4706 13.7864 14.8961 15.2008 14.8961 16.9463C14.8961 18.6917 13.4706 20.1061 11.7114 20.1061ZM16.4186 16.8543C16.4186 14.7751 14.8947 12.9901 12.8832 12.2277C13.9709 11.7765 15.1641 11.5262 16.4172 11.5262C17.6702 11.5262 18.8648 11.7765 19.9525 12.2277C17.9425 12.9915 16.4186 14.7751 16.4186 16.8543ZM21.1244 20.1061C19.3652 20.1061 17.9397 18.6917 17.9397 16.9463C17.9397 15.2008 19.3652 13.7864 21.1244 13.7864C22.8835 13.7864 24.309 15.2008 24.309 16.9463C24.309 18.6917 22.8835 20.1061 21.1244 20.1061ZM21.1244 15.2885C20.202 15.2885 19.455 16.0297 19.455 16.9449C19.455 17.86 20.202 18.6011 21.1244 18.6011C22.0467 18.6011 22.7937 17.86 22.7937 16.9449C22.7936 16.0311 22.0467 15.2885 21.1244 15.2885ZM13.3808 16.9463C13.3808 17.8614 12.6338 18.6026 11.7114 18.6026C10.7891 18.6026 10.0421 17.8614 10.0421 16.9463C10.0421 16.0311 10.7891 15.29 11.7114 15.29C12.6338 15.2885 13.3808 16.0311 13.3808 16.9463Z" fill="white"/>
</svg>
